<?xml version="1.0" encoding="UTF-8" standalone="no"?>
<!DOCTYPE svg PUBLIC "-//W3C//DTD SVG 1.1//EN" "http://www.w3.org/Graphics/SVG/1.1/DTD/svg11.dtd">
<svg width="100%" height="100%" viewBox="0 0 1080 1080" version="1.1" xmlns="http://www.w3.org/2000/svg" xmlns:xlink="http://www.w3.org/1999/xlink" xml:space="preserve" xmlns:serif="http://www.serif.com/" style="fill-rule:evenodd;clip-rule:evenodd;stroke-linejoin:round;stroke-miterlimit:2;">
    <g id="paper" transform="matrix(1,0,0,1,1171,0)">
        <rect x="-1171" y="0" width="1080" height="1080" style="fill:none;"/>
        <g transform="matrix(1.42781,0,0,1.42781,-1423.31,-270.578)">
            <g transform="matrix(6.20226e-17,1.01291,-1.41414,8.65912e-17,1329.64,-173.943)">
                <path d="M632.772,441L1080,441L1080,639L632.772,639" style="fill:#fad5b1;"/>
            </g>
            <g transform="matrix(6.20226e-17,1.01291,-1.41414,8.65912e-17,1329.64,-173.943)">
                <path d="M632.772,445.953C628.956,445.953 625.857,443.733 625.857,441C625.857,438.267 628.956,436.047 632.772,436.047L1080,436.047C1083.82,436.047 1086.91,438.265 1086.91,441L1086.91,639C1086.91,641.735 1083.82,643.953 1080,643.953L632.772,643.953C628.956,643.953 625.857,641.733 625.857,639C625.857,636.267 628.956,634.047 632.772,634.047C632.772,634.047 1016.58,634.047 1073.09,634.047C1073.09,603.864 1073.09,445.953 1073.09,445.953L632.772,445.953Z"/>
            </g>
            <g transform="matrix(4.67212e-17,0.763015,-0.353535,2.16478e-17,651.909,-294.061)">
                <path d="M1038.06,639L752.285,639C740.284,639 728.776,628.712 720.29,610.398C711.805,592.084 707.038,567.246 707.038,541.346C707.038,541.344 707.038,541.343 707.038,541.341C707.038,514.729 711.936,489.207 720.655,470.389C729.374,451.572 741.199,441 753.53,441C856.959,441 1006.61,441 1006.61,441" style="fill:#fad5b1;"/>
            </g>
            <g transform="matrix(4.67212e-17,0.763015,-0.353535,2.16478e-17,651.909,-294.061)">
                <path d="M1038.06,619.189C1043.13,619.189 1047.24,628.066 1047.24,639C1047.24,649.934 1043.13,658.811 1038.06,658.811L752.285,658.811C737.85,658.811 724.006,646.435 713.8,624.406C703.593,602.377 697.859,572.5 697.859,541.346L697.859,541.341C697.859,509.475 703.724,478.914 714.164,456.381C724.605,433.848 738.765,421.189 753.53,421.189L1006.61,421.189C1011.67,421.189 1015.79,430.066 1015.79,441C1015.79,451.934 1011.67,460.811 1006.61,460.811L753.53,460.811C743.634,460.811 734.143,469.295 727.145,484.397C720.148,499.5 716.217,519.983 716.217,541.341L716.217,541.346C716.217,561.992 720.017,581.791 726.781,596.39C733.545,610.988 742.719,619.189 752.285,619.189L1038.06,619.189Z"/>
            </g>
            <g transform="matrix(4.67212e-17,0.763015,-0.353535,2.16478e-17,721.909,-324.061)">
                <path d="M1045.92,639C1045.92,639 855.018,639 752.285,639C740.284,639 728.776,628.712 720.29,610.398C711.805,592.084 707.038,567.246 707.038,541.346C707.038,541.344 707.038,541.343 707.038,541.341C707.038,514.729 711.936,489.207 720.655,470.389C729.374,451.572 741.199,441 753.53,441C856.959,441 1045.92,441 1045.92,441" style="fill:#fad5b1;"/>
            </g>
            <g transform="matrix(4.67212e-17,0.763015,-0.353535,2.16478e-17,721.909,-324.061)">
                <path d="M1045.92,619.189C1050.99,619.189 1055.1,628.066 1055.1,639C1055.1,649.934 1050.99,658.811 1045.92,658.811L752.285,658.811C737.85,658.811 724.006,646.435 713.8,624.406C703.593,602.377 697.859,572.5 697.859,541.346L697.859,541.341C697.859,509.475 703.724,478.914 714.164,456.381C724.605,433.848 738.765,421.189 753.53,421.189L1045.92,421.189C1050.99,421.189 1055.1,430.066 1055.1,441C1055.1,451.934 1050.99,460.811 1045.92,460.811L753.53,460.811C743.634,460.811 734.143,469.295 727.145,484.397C720.148,499.5 716.217,519.983 716.217,541.341L716.217,541.346C716.217,561.992 720.017,581.791 726.781,596.39C733.545,610.988 742.719,619.189 752.285,619.189L1045.92,619.189Z"/>
            </g>
            <g transform="matrix(4.67212e-17,0.763015,-0.353535,2.16478e-17,791.909,-294.061)">
                <path d="M1006.61,639C1006.61,639 855.018,639 752.285,639C740.284,639 728.776,628.712 720.29,610.398C711.805,592.084 707.038,567.246 707.038,541.346C707.038,541.344 707.038,541.343 707.038,541.341C707.038,514.729 711.936,489.207 720.655,470.389C729.374,451.572 741.199,441 753.53,441C856.959,441 1026.27,441 1026.27,441" style="fill:#fad5b1;"/>
            </g>
            <g transform="matrix(4.67212e-17,0.763015,-0.353535,2.16478e-17,791.909,-294.061)">
                <path d="M1006.61,619.189C1011.67,619.189 1015.79,628.066 1015.79,639C1015.79,649.934 1011.67,658.811 1006.61,658.811L752.285,658.811C737.85,658.811 724.006,646.435 713.8,624.406C703.593,602.377 697.859,572.5 697.859,541.346L697.859,541.341C697.859,509.475 703.724,478.914 714.164,456.381C724.605,433.848 738.765,421.189 753.53,421.189L1026.27,421.189C1031.33,421.189 1035.44,430.066 1035.44,441C1035.44,451.934 1031.33,460.811 1026.27,460.811L753.53,460.811C743.634,460.811 734.143,469.295 727.145,484.397C720.148,499.5 716.217,519.983 716.217,541.341L716.217,541.346C716.217,561.992 720.017,581.791 726.781,596.39C733.545,610.988 742.719,619.189 752.285,619.189L1006.61,619.189Z"/>
            </g>
            <g transform="matrix(4.67212e-17,0.763015,-0.353535,2.16478e-17,861.909,-262.061)">
                <path d="M984.327,639C984.327,639 891.714,639 788.981,639C776.981,639 765.472,628.712 756.987,610.398C748.501,592.084 743.734,567.246 743.734,541.346C743.734,541.344 743.734,541.343 743.734,541.341C743.734,514.729 748.632,489.207 757.351,470.389C766.07,451.572 777.896,441 790.226,441C893.655,441 996.122,441 996.122,441" style="fill:#fad5b1;"/>
            </g>
            <g transform="matrix(4.67212e-17,0.763015,-0.353535,2.16478e-17,861.909,-262.061)">
                <path d="M984.327,619.189C989.393,619.189 993.506,628.066 993.506,639C993.506,649.934 989.393,658.811 984.327,658.811L788.981,658.811C774.546,658.811 760.703,646.435 750.496,624.406C740.289,602.377 734.555,572.5 734.555,541.346L734.555,541.341C734.555,509.475 740.421,478.914 750.861,456.381C761.301,433.848 775.461,421.189 790.226,421.189L996.122,421.189C1001.19,421.189 1005.3,430.066 1005.3,441C1005.3,451.934 1001.19,460.811 996.122,460.811L790.226,460.811C780.33,460.811 770.839,469.295 763.842,484.397C756.844,499.5 752.913,519.983 752.913,541.341L752.913,541.346C752.913,561.992 756.713,581.791 763.477,596.39C770.241,610.988 779.415,619.189 788.981,619.189L984.327,619.189Z"/>
            </g>
            <g transform="matrix(1,0,0,1,51,-141)">
                <path d="M425,902.826C326.147,902.826 292,816.001 292,744.148L292,553.543C292,530.623 310.58,512.043 333.5,512.043C356.42,512.043 375,530.623 375,553.543L375,699.995C434.151,699.995 493.306,753.638 493.306,818.301" style="fill:#fad5b1;"/>
            </g>
            <g transform="matrix(1,0,0,1,51,-141)">
                <path d="M425,895.822C428.865,895.822 432.004,898.96 432.004,902.826C432.004,906.691 428.865,909.83 425,909.83C321.436,909.83 284.996,819.425 284.996,744.148L284.996,553.543C284.996,526.755 306.712,505.039 333.5,505.039C360.288,505.039 382.004,526.755 382.004,553.543L382.004,693.226C442.237,697.244 500.31,752.363 500.31,818.301C500.31,822.166 497.171,825.305 493.306,825.305C489.44,825.305 486.302,822.166 486.302,818.301C486.302,757.466 430.649,706.999 375,706.999C371.132,706.999 367.996,703.863 367.996,699.995L367.996,553.543C367.996,534.491 352.552,519.047 333.5,519.047C314.448,519.047 299.004,534.491 299.004,553.543L299.004,744.148C299.004,812.577 330.857,895.822 425,895.822Z"/>
            </g>
            <g transform="matrix(1.12143,0,0,0.963636,190.321,98.6)">
                <rect x="195" y="759" width="280" height="55" style="fill:#cd150e;"/>
            </g>
            <g transform="matrix(1.12143,0,0,0.963636,190.321,98.6)">
                <path d="M481.245,759L481.245,814C481.245,818.014 478.449,821.268 475,821.268L195,821.268C191.551,821.268 188.755,818.014 188.755,814L188.755,759C188.755,754.986 191.551,751.732 195,751.732L475,751.732C478.449,751.732 481.245,754.986 481.245,759ZM468.755,766.268C468.755,766.268 201.245,766.268 201.245,766.268L201.245,806.732C242.03,806.732 468.755,806.732 468.755,806.732L468.755,766.268Z"/>
            </g>
        </g>
    </g>
</svg>
