<?xml version="1.0" encoding="UTF-8" standalone="no"?>
<!DOCTYPE svg PUBLIC "-//W3C//DTD SVG 1.1//EN" "http://www.w3.org/Graphics/SVG/1.1/DTD/svg11.dtd">
<svg width="100%" height="100%" viewBox="0 0 1080 1081" version="1.1" xmlns="http://www.w3.org/2000/svg" xmlns:xlink="http://www.w3.org/1999/xlink" xml:space="preserve" xmlns:serif="http://www.serif.com/" style="fill-rule:evenodd;clip-rule:evenodd;stroke-linejoin:round;stroke-miterlimit:2;">
    <g transform="matrix(1,0,0,1,-2345,-1235)">
        <g id="rock_opponent" transform="matrix(1,0,0,1,0,1235.22)">
            <rect x="2345" y="0" width="1080" height="1080" style="fill:none;"/>
            <g id="Rock" transform="matrix(1.42781,0,0,1.42781,2095.26,-270.578)">
                <g transform="matrix(6.20226e-17,1.01291,-1.41414,8.65912e-17,1329.64,-173.943)">
                    <path d="M632.772,441L1080,441L1080,639L632.772,639" style="fill:#fad5b1;"/>
                </g>
                <g transform="matrix(6.20226e-17,1.01291,-1.41414,8.65912e-17,1329.64,-173.943)">
                    <path d="M632.772,445.953C628.956,445.953 625.857,443.733 625.857,441C625.857,438.267 628.956,436.047 632.772,436.047L1080,436.047C1083.82,436.047 1086.91,438.265 1086.91,441L1086.91,639C1086.91,641.735 1083.82,643.953 1080,643.953L632.772,643.953C628.956,643.953 625.857,641.733 625.857,639C625.857,636.267 628.956,634.047 632.772,634.047C632.772,634.047 1073.09,634.047 1073.09,634.047C1073.09,603.864 1073.09,445.953 1073.09,445.953L632.772,445.953Z"/>
                </g>
                <g transform="matrix(0.700373,0,0,0.700373,180.012,189.506)">
                    <path d="M351.224,314.973C351.224,314.034 351.25,313.1 351.302,312.173C352.756,285.893 374.556,265 401.198,265C426.759,265 447.864,284.234 450.818,309.006C451.051,310.963 451.171,312.954 451.171,314.973L451.171,455.98C451.171,469.413 445.835,482.296 436.336,491.795C426.837,501.294 413.954,506.63 400.521,506.63L400.518,506.63C387.445,506.63 374.907,501.437 365.662,492.192C356.418,482.948 351.224,470.41 351.224,457.336L351.224,314.973Z" style="fill:#fad5b1;"/>
                </g>
                <g transform="matrix(0.700373,0,0,0.700373,180.012,189.506)">
                    <path d="M400.521,516.63L400.521,496.63C411.302,496.63 421.642,492.347 429.265,484.724C436.888,477.1 441.171,466.761 441.171,455.98L441.171,314.973C441.171,313.355 441.075,311.758 440.888,310.19C438.526,290.377 421.642,275 401.198,275C379.89,275 362.45,291.706 361.286,312.726C361.245,313.47 361.224,314.219 361.224,314.973L361.224,457.336C361.224,467.758 365.364,477.752 372.733,485.121C380.102,492.49 390.097,496.63 400.518,496.63C394.995,496.63 390.518,501.107 390.518,506.63C390.518,512.153 394.995,516.63 400.518,516.63C384.792,516.63 369.711,510.383 358.591,499.263C347.471,488.144 341.224,473.062 341.224,457.336L341.224,314.973C341.224,313.848 341.256,312.73 341.317,311.621C343.063,280.079 369.223,255 401.198,255C431.877,255 457.203,278.09 460.747,307.822C461.027,310.167 461.171,312.554 461.171,314.973L461.171,455.98C461.171,472.065 454.781,487.492 443.407,498.866C432.033,510.24 416.606,516.63 400.521,516.63ZM400.518,516.63L400.518,496.63L400.521,516.63L400.518,516.63Z"/>
                </g>
                <g transform="matrix(0.700373,0,0,0.700373,180.012,189.506)">
                    <path d="M451.171,308.995C451.173,281.415 473.564,259.025 501.144,259.025C528.724,259.025 551.116,281.415 551.118,308.995L551.118,462.623C551.118,476.057 545.781,488.94 536.283,498.439C526.784,507.937 513.901,513.274 500.468,513.274L500.465,513.274C487.391,513.274 474.853,508.08 465.609,498.836C456.364,489.591 451.171,477.053 451.171,463.98L451.171,308.995Z" style="fill:#fad5b1;"/>
                </g>
                <g transform="matrix(0.700373,0,0,0.700373,180.012,189.506)">
                    <path d="M500.468,523.274L500.468,503.274C511.249,503.274 521.588,498.991 529.212,491.367C536.835,483.744 541.118,473.405 541.118,462.623L541.118,308.995C541.116,286.935 523.205,269.025 501.144,269.025C479.083,269.025 461.173,286.935 461.171,308.995L461.171,463.98C461.171,474.401 465.311,484.396 472.68,491.765C480.049,499.134 490.044,503.274 500.465,503.274C500.465,508.796 500.468,507.751 500.468,513.274C500.468,518.796 500.417,516.274 500.465,523.274C484.739,523.274 469.658,517.027 458.538,505.907C447.418,494.787 441.171,479.706 441.171,463.98L441.171,308.994C441.173,275.896 468.046,249.025 501.144,249.025C534.243,249.025 561.116,275.896 561.118,308.994L561.118,462.623C561.118,478.709 554.728,494.135 543.354,505.51C531.98,516.884 516.553,523.274 500.468,523.274ZM500.465,523.274L500.465,503.274L500.468,523.274L500.465,523.274Z"/>
                </g>
                <g transform="matrix(0.700373,0,0,0.700373,180.012,189.506)">
                    <path d="M551.118,308.995C551.12,281.415 573.511,259.025 601.091,259.025C628.672,259.025 651.064,281.417 651.064,308.998L651.064,455.98C651.064,469.413 645.728,482.296 636.229,491.795C626.731,501.294 613.848,506.63 600.414,506.63L600.411,506.63C587.338,506.63 574.8,501.437 565.556,492.192C556.311,482.948 551.118,470.41 551.118,457.336L551.118,308.995Z" style="fill:#fad5b1;"/>
                </g>
                <g transform="matrix(0.700373,0,0,0.700373,180.012,189.506)">
                    <path d="M600.414,516.63L600.414,496.63C611.195,496.63 621.535,492.347 629.158,484.724C636.782,477.1 641.064,466.761 641.064,455.98L641.064,308.998C641.064,286.936 623.153,269.025 601.091,269.025C579.03,269.025 561.119,286.935 561.118,308.995L561.118,457.336C561.118,467.758 565.258,477.752 572.627,485.121C579.996,492.49 589.99,496.63 600.412,496.63C600.412,502.153 600.414,501.107 600.414,506.63C600.414,512.153 600.411,511.107 600.411,516.63C584.686,516.63 569.604,510.383 558.484,499.263C547.365,488.144 541.118,473.062 541.118,457.336L541.118,308.994C541.12,275.896 567.992,249.025 601.091,249.025C634.191,249.025 661.064,275.898 661.064,308.998L661.064,455.98C661.064,472.065 654.675,487.492 643.3,498.866C631.926,510.24 616.5,516.63 600.414,516.63ZM600.411,516.63L600.412,496.63L600.414,516.63L600.411,516.63Z"/>
                </g>
                <g transform="matrix(0.700373,0,0,0.700373,180.012,189.506)">
                    <path d="M651.416,309.02C654.363,284.241 675.471,265 701.038,265C728.619,265 751.011,287.392 751.011,314.973C751.011,315.1 751.011,315.227 751.01,315.353L751.011,315.353L751.011,444.911C751.011,458.344 745.675,471.227 736.176,480.726C726.677,490.224 713.794,495.561 700.361,495.561L700.358,495.561C687.285,495.561 674.747,490.367 665.502,481.123C656.258,471.879 651.064,459.341 651.064,446.267L651.064,314.973C651.064,312.959 651.184,310.973 651.416,309.02Z" style="fill:#fad5b1;"/>
                </g>
                <g transform="matrix(0.700373,0,0,0.700373,180.012,189.506)">
                    <path d="M761.01,315.354L761.011,315.353L761.011,444.911C761.011,460.996 754.621,476.423 743.247,487.797C731.873,499.171 716.446,505.561 700.361,505.561L700.358,505.561C684.632,505.561 669.551,499.314 658.431,488.194C647.311,477.074 641.064,461.993 641.064,446.267L641.064,314.973C641.064,312.56 641.208,310.179 641.486,307.839C645.023,278.099 670.352,255 701.038,255C734.138,255 761.011,281.873 761.011,314.973C761.011,315.1 761.011,315.227 761.01,315.354ZM700.36,485.561C711.141,485.561 721.482,481.278 729.105,473.655C736.728,466.031 741.011,455.692 741.011,444.911L741.011,315.522C741.01,315.441 741.009,315.36 741.01,315.279C741.011,315.177 741.011,315.075 741.011,314.973C741.011,292.911 723.1,275 701.038,275C680.59,275 663.703,290.383 661.346,310.201C661.16,311.766 661.064,313.359 661.064,314.973L661.064,446.267C661.064,456.688 665.204,466.683 672.573,474.052C679.942,481.421 689.938,485.561 700.36,485.561Z"/>
                </g>
                <g transform="matrix(1,0,0,1,51,-141)">
                    <path d="M425,902.826C326.147,902.826 292,816.001 292,744.148C292,744.148 292.349,673.436 292.555,631.878C292.635,615.541 305.902,602.339 322.239,602.34C371.676,602.341 465.812,602.343 465.812,602.343C488.73,602.048 507.547,620.387 507.842,643.305C508.137,666.223 489.798,685.041 466.88,685.336L375,685.361L375,699.995C434.151,699.995 493.306,753.638 493.306,818.301" style="fill:#fad5b1;"/>
                </g>
                <g transform="matrix(1,0,0,1,51,-141)">
                    <path d="M425,895.822C428.865,895.822 432.004,898.96 432.004,902.826C432.004,906.691 428.865,909.83 425,909.83C321.436,909.83 284.996,819.425 284.996,744.148C284.996,744.137 284.996,744.125 284.996,744.113L285.551,631.843C285.651,611.651 302.047,595.336 322.239,595.336C371.07,595.337 463.511,595.339 465.745,595.339C492.52,595.007 514.501,616.437 514.845,643.215C515.19,670.001 493.755,691.994 466.97,692.339C466.94,692.339 466.911,692.34 466.882,692.34L382.004,692.362L382.004,693.226C442.237,697.244 500.31,752.363 500.31,818.301C500.31,822.166 497.171,825.305 493.306,825.305C489.44,825.305 486.302,822.166 486.302,818.301C486.302,757.466 430.649,706.999 375,706.999C371.132,706.999 367.996,703.863 367.996,699.995L367.996,685.361C367.996,681.493 371.131,678.358 374.998,678.357C374.998,678.357 466.829,678.332 466.868,678.332C485.882,678.044 501.084,662.419 500.839,643.395C500.594,624.345 484.952,609.101 465.902,609.346C465.872,609.346 465.842,609.346 465.812,609.346L322.239,609.344C309.756,609.343 299.62,619.43 299.558,631.912L299.004,744.164C299.009,812.59 330.864,895.822 425,895.822Z"/>
                </g>
                <g id="wristband" transform="matrix(1.12143,0,0,0.963636,190.321,98.6)">
                    <rect x="195" y="759" width="280" height="55" style="fill:#30a1f5;"/>
                </g>
                <g transform="matrix(1.12143,0,0,0.963636,190.321,98.6)">
                    <path d="M481.245,759L481.245,814C481.245,818.014 478.449,821.268 475,821.268L195,821.268C191.551,821.268 188.755,818.014 188.755,814L188.755,759C188.755,754.986 191.551,751.732 195,751.732L475,751.732C478.449,751.732 481.245,754.986 481.245,759ZM468.755,766.268C468.755,766.268 242.03,766.268 201.245,766.268L201.245,806.732C242.03,806.732 468.755,806.732 468.755,806.732L468.755,766.268Z"/>
                </g>
            </g>
        </g>
    </g>
</svg>
