<?xml version="1.0" encoding="UTF-8" standalone="no"?>
<!DOCTYPE svg PUBLIC "-//W3C//DTD SVG 1.1//EN" "http://www.w3.org/Graphics/SVG/1.1/DTD/svg11.dtd">
<svg width="100%" height="100%" viewBox="0 0 1080 1080" version="1.1" xmlns="http://www.w3.org/2000/svg" xmlns:xlink="http://www.w3.org/1999/xlink" xml:space="preserve" xmlns:serif="http://www.serif.com/" style="fill-rule:evenodd;clip-rule:evenodd;stroke-linejoin:round;stroke-miterlimit:2;">
    <g transform="matrix(1,0,0,1,-1171,0)">
        <g id="scissors" transform="matrix(1,0,0,1,27,0)">
            <rect x="1144" y="0" width="1080" height="1080" style="fill:none;"/>
            <g transform="matrix(1.42781,0,0,1.42781,891.694,-270.578)">
                <g transform="matrix(6.20226e-17,1.01291,-1.41414,8.65912e-17,1329.64,-173.943)">
                    <path d="M632.772,441L1080,441L1080,639L632.772,639" style="fill:#fad5b1;"/>
                </g>
                <g transform="matrix(6.20226e-17,1.01291,-1.41414,8.65912e-17,1329.64,-173.943)">
                    <path d="M632.772,445.953C628.956,445.953 625.857,443.733 625.857,441C625.857,438.267 628.956,436.047 632.772,436.047L1080,436.047C1083.82,436.047 1086.91,438.265 1086.91,441L1086.91,639C1086.91,641.735 1083.82,643.953 1080,643.953L632.772,643.953C628.956,643.953 625.857,641.733 625.857,639C625.857,636.267 628.956,634.047 632.772,634.047C632.772,634.047 1016.58,634.047 1073.09,634.047C1073.09,634.047 1073.09,445.953 1073.09,445.953L632.772,445.953Z"/>
                </g>
                <g transform="matrix(0.143148,0.749466,-0.347258,0.0663264,499.923,-315.813)">
                    <path d="M1038.06,639L752.285,639C740.284,639 728.776,628.712 720.29,610.398C711.805,592.084 707.038,567.246 707.038,541.346C707.038,541.344 707.038,541.343 707.038,541.341C707.038,514.729 711.936,489.207 720.655,470.389C729.374,451.572 741.199,441 753.53,441C856.959,441 1006.61,441 1006.61,441" style="fill:#fad5b1;"/>
                </g>
                <g transform="matrix(0.143148,0.749466,-0.347258,0.0663264,499.923,-315.813)">
                    <path d="M1038.06,619.189C1043.13,619.189 1047.24,628.066 1047.24,639C1047.24,649.934 1043.13,658.811 1038.06,658.811L752.285,658.811C737.85,658.811 724.006,646.435 713.8,624.406C703.593,602.377 697.859,572.5 697.859,541.346L697.859,541.341C697.859,509.475 703.724,478.914 714.164,456.381C724.605,433.848 738.765,421.189 753.53,421.189L1006.61,421.189C1011.67,421.189 1015.79,430.066 1015.79,441C1015.79,451.934 1011.67,460.811 1006.61,460.811L753.53,460.811C743.634,460.811 734.143,469.295 727.145,484.397C720.148,499.5 716.217,519.983 716.217,541.341L716.217,541.346C716.217,561.992 720.017,581.791 726.781,596.39C733.545,610.988 742.719,619.189 752.285,619.189L1038.06,619.189Z"/>
                </g>
                <g transform="matrix(-0.0928447,0.757345,-0.350908,-0.0430187,817.614,-295.144)">
                    <path d="M1045.92,639C1045.92,639 855.018,639 752.285,639C740.284,639 728.776,628.712 720.29,610.398C711.805,592.084 707.038,567.246 707.038,541.346C707.038,541.344 707.038,541.343 707.038,541.341C707.038,514.729 711.936,489.207 720.655,470.389C729.374,451.572 741.199,441 753.53,441C856.959,441 1045.92,441 1045.92,441" style="fill:#fad5b1;"/>
                </g>
                <g transform="matrix(-0.0928447,0.757345,-0.350908,-0.0430187,817.614,-295.144)">
                    <path d="M1045.92,619.189C1050.99,619.189 1055.1,628.066 1055.1,639C1055.1,649.934 1050.99,658.811 1045.92,658.811L752.285,658.811C737.85,658.811 724.006,646.435 713.8,624.406C703.593,602.377 697.859,572.5 697.859,541.346L697.859,541.341C697.859,509.475 703.724,478.914 714.164,456.381C724.605,433.848 738.765,421.189 753.53,421.189L1045.92,421.189C1050.99,421.189 1055.1,430.066 1055.1,441C1055.1,451.934 1050.99,460.811 1045.92,460.811L753.53,460.811C743.634,460.811 734.143,469.295 727.145,484.397C720.148,499.5 716.217,519.983 716.217,541.341L716.217,541.346C716.217,561.992 720.017,581.791 726.781,596.39C733.545,610.988 742.719,619.189 752.285,619.189L1045.92,619.189Z"/>
                </g>
                <g transform="matrix(0.700373,0,0,0.700373,180.012,189.506)">
                    <path d="M551.118,308.995C551.12,281.415 573.511,259.025 601.091,259.025C628.672,259.025 651.064,281.417 651.064,308.998L651.064,455.98C651.064,469.413 645.728,482.296 636.229,491.795C626.731,501.294 613.848,506.63 600.414,506.63L600.411,506.63C587.338,506.63 574.8,501.437 565.556,492.192C556.311,482.948 551.118,470.41 551.118,457.336L551.118,308.995Z" style="fill:#fad5b1;"/>
                </g>
                <g transform="matrix(0.700373,0,0,0.700373,180.012,189.506)">
                    <path d="M600.414,516.63L600.414,496.63C611.195,496.63 621.535,492.347 629.158,484.724C636.782,477.1 641.064,466.761 641.064,455.98L641.064,308.998C641.064,286.936 623.153,269.025 601.091,269.025C579.03,269.025 561.119,286.935 561.118,308.995L561.118,457.336C561.118,467.758 565.258,477.752 572.627,485.121C579.996,492.49 589.99,496.63 600.412,496.63C600.495,500.63 600.414,501.63 600.414,506.63C600.414,511.63 600.361,512.63 600.411,516.63C584.686,516.63 569.604,510.383 558.484,499.263C547.365,488.144 541.118,473.062 541.118,457.336L541.118,308.994C541.12,275.896 567.992,249.025 601.091,249.025C634.191,249.025 661.064,275.898 661.064,308.998L661.064,455.98C661.064,472.065 654.675,487.492 643.3,498.866C631.926,510.24 616.5,516.63 600.414,516.63ZM600.411,516.63L600.412,496.63L600.414,516.63L600.411,516.63Z"/>
                </g>
                <g transform="matrix(0.700373,0,0,0.700373,180.012,189.506)">
                    <path d="M651.416,309.02C654.363,284.241 675.471,265 701.038,265C728.619,265 751.011,287.392 751.011,314.973C751.011,315.1 751.011,315.227 751.01,315.353L751.011,315.353L751.011,444.911C751.011,458.344 745.675,471.227 736.176,480.726C726.677,490.224 713.794,495.561 700.361,495.561L700.358,495.561C687.285,495.561 674.747,490.367 665.502,481.123C656.258,471.879 651.064,459.341 651.064,446.267L651.064,314.973C651.064,312.959 651.184,310.973 651.416,309.02Z" style="fill:#fad5b1;"/>
                </g>
                <g transform="matrix(0.700373,0,0,0.700373,180.012,189.506)">
                    <path d="M761.01,315.354L761.011,315.353L761.011,444.911C761.011,460.996 754.621,476.423 743.247,487.797C731.873,499.171 716.446,505.561 700.361,505.561L700.358,505.561L700.361,485.561C711.142,485.561 721.482,481.278 729.105,473.655C736.728,466.031 741.011,455.692 741.011,444.911L741.011,315.522C741.01,315.441 741.009,315.36 741.01,315.279C741.011,315.177 741.011,315.075 741.011,314.973C741.011,292.911 723.1,275 701.038,275C680.59,275 663.703,290.383 661.346,310.201C661.16,311.766 661.064,313.359 661.064,314.973L661.064,446.267C661.064,456.688 665.204,466.683 672.573,474.052C679.942,481.421 689.937,485.561 700.358,485.561C700.358,490.916 700.364,491.23 700.359,496.228C700.355,501.229 700.358,502.969 700.358,505.561C684.632,505.561 669.551,499.314 658.431,488.194C647.311,477.074 641.064,461.993 641.064,446.267L641.064,314.973C641.064,312.56 641.208,310.179 641.486,307.839C645.023,278.099 670.352,255 701.038,255C734.138,255 761.011,281.873 761.011,314.973C761.011,315.1 761.011,315.227 761.01,315.354Z"/>
                </g>
                <g transform="matrix(1,0,0,1,51,-141)">
                    <path d="M425,902.826C326.147,902.826 292,816.001 292,744.148C292,744.148 292.349,673.436 292.555,631.878C292.635,615.541 305.902,602.339 322.239,602.34C371.676,602.341 465.812,602.343 465.812,602.343C488.73,602.048 507.547,620.387 507.842,643.305C508.137,666.223 489.798,685.041 466.88,685.336L375,685.361L375,699.995C434.151,699.995 493.306,753.638 493.306,818.301" style="fill:#fad5b1;"/>
                </g>
                <g transform="matrix(1,0,0,1,51,-141)">
                    <path d="M425,895.822C428.865,895.822 432.004,898.96 432.004,902.826C432.004,906.691 428.865,909.83 425,909.83C321.436,909.83 284.996,819.425 284.996,744.148C284.996,744.137 284.996,744.125 284.996,744.113L285.551,631.843C285.651,611.651 302.047,595.336 322.239,595.336C322.239,595.336 465.77,595.339 465.745,595.339C492.52,595.007 514.501,616.437 514.845,643.215C515.19,670.001 493.755,691.994 466.97,692.339C466.94,692.339 466.911,692.34 466.882,692.34L382.004,692.362L382.004,693.226C442.237,697.244 500.31,752.363 500.31,818.301C500.31,822.166 497.171,825.305 493.306,825.305C489.44,825.305 486.302,822.166 486.302,818.301C486.302,757.466 430.649,706.999 375,706.999C371.132,706.999 367.996,703.863 367.996,699.995L367.996,685.361C367.996,681.493 371.131,678.358 374.998,678.357C374.998,678.357 466.829,678.332 466.868,678.332C485.882,678.044 501.084,662.419 500.839,643.395C500.594,624.345 484.952,609.101 465.902,609.346C465.872,609.346 465.842,609.346 465.812,609.346L322.239,609.344C309.756,609.343 299.62,619.43 299.558,631.912L299.004,744.164C299.009,812.59 330.864,895.822 425,895.822Z"/>
                </g>
                <g transform="matrix(1.12143,0,0,0.963636,190.321,98.6)">
                    <rect x="195" y="759" width="280" height="55" style="fill:#cd150e;"/>
                </g>
                <g transform="matrix(1.12143,0,0,0.963636,190.321,98.6)">
                    <path d="M481.245,759L481.245,814C481.245,818.014 478.449,821.268 475,821.268L195,821.268C191.551,821.268 188.755,818.014 188.755,814L188.755,759C188.755,754.986 191.551,751.732 195,751.732L475,751.732C478.449,751.732 481.245,754.986 481.245,759ZM468.755,766.268C468.755,766.268 201.245,766.268 201.245,766.268L201.245,806.732C201.245,806.732 468.755,806.732 468.755,806.732L468.755,766.268Z"/>
                </g>
            </g>
        </g>
    </g>
</svg>
